<svg width="30" height="30" viewBox="0 0 30 30" fill="none" xmlns="http://www.w3.org/2000/svg">
<path d="M10.9938 21.3581C10.4271 22.1848 9.82012 22.983 9.175 23.75C4.5625 23.6188 2.8125 20.625 2.8125 20.625C2.87806 16.3832 3.90599 12.2116 5.81875 8.425C7.50011 7.10965 9.54883 6.34957 11.6813 6.25L12.3063 7.69375C13.1989 7.56983 14.0988 7.5051 15 7.5C15.9052 7.50298 16.8093 7.56562 17.7062 7.6875L18.3312 6.24375C20.4658 6.34871 22.5147 7.11542 24.1937 8.4375C26.1003 12.2214 27.1239 16.3884 27.1875 20.625C27.1875 20.625 25.4375 23.6188 20.825 23.75C20.1896 22.9867 19.5931 22.1919 19.0375 21.3688M23.075 19.5563C20.675 20.7719 18.3525 21.9875 15 21.9875C11.6475 21.9875 9.325 20.7719 6.925 19.5563" stroke="#333333" stroke-linecap="round" stroke-linejoin="round"/>
<path d="M11.1544 18.4875C12.3108 18.4875 13.2482 17.5501 13.2482 16.3938C13.2482 15.2374 12.3108 14.3 11.1544 14.3C9.99807 14.3 9.06067 15.2374 9.06067 16.3938C9.06067 17.5501 9.99807 18.4875 11.1544 18.4875Z" stroke="#333333" stroke-linecap="round" stroke-linejoin="round"/>
<path d="M18.8456 18.4875C20.0019 18.4875 20.9393 17.5501 20.9393 16.3938C20.9393 15.2374 20.0019 14.3 18.8456 14.3C17.6892 14.3 16.7518 15.2374 16.7518 16.3938C16.7518 17.5501 17.6892 18.4875 18.8456 18.4875Z" stroke="#333333" stroke-linecap="round" stroke-linejoin="round"/>
</svg>
