<svg width="30" height="30" viewBox="0 0 30 30" fill="none" xmlns="http://www.w3.org/2000/svg">
<g clip-path="url(#clip0_401_228)">
<path d="M18.75 26.25V21.875C18.75 20.625 18.875 20.125 18.125 19.375C21.625 19 25 17.625 25 11.875C24.9985 10.3812 24.4157 8.94664 23.375 7.875C23.8631 6.57746 23.8181 5.13953 23.25 3.875C23.25 3.875 21.875 3.5 18.875 5.5C16.334 4.83823 13.666 4.83823 11.125 5.5C8.125 3.5 6.75 3.875 6.75 3.875C6.18185 5.13953 6.13692 6.57746 6.625 7.875C5.58432 8.94664 5.00152 10.3812 5 11.875C5 17.625 8.375 19 11.875 19.375C11.125 20.125 11.125 20.875 11.25 21.875V26.25M11.25 23.75C5.875 25.5 5.875 20.625 3.75 20L11.25 23.75Z" stroke="#4B4B4B" stroke-width="1.25" stroke-linecap="round" stroke-linejoin="round"/>
</g>
<defs>
<clipPath id="clip0_401_228">
<rect width="30" height="30" fill="white"/>
</clipPath>
</defs>
</svg>
