<svg width="170" height="42" viewBox="0 0 170 42" fill="none" xmlns="http://www.w3.org/2000/svg">
<path d="M15.4 29.4L18.6667 26.075L13.5917 21L18.6667 15.925L15.4 12.6L7 21L15.4 29.4ZM26.6 29.4L35 21L26.6 12.6L23.3333 15.925L28.4083 21L23.3333 26.075L26.6 29.4ZM4.66667 42C3.38334 42 2.28434 41.5427 1.36967 40.628C0.455004 39.7133 -0.00155159 38.6151 3.96152e-06 37.3333V4.66667C3.96152e-06 3.38334 0.457337 2.28434 1.372 1.36967C2.28667 0.455004 3.38489 -0.00155159 4.66667 3.96152e-06H37.3333C38.6167 3.96152e-06 39.7157 0.457337 40.6303 1.372C41.545 2.28667 42.0016 3.38489 42 4.66667V37.3333C42 38.6167 41.5427 39.7157 40.628 40.6303C39.7133 41.545 38.6151 42.0016 37.3333 42H4.66667Z" fill="#222222"/>
<path d="M53.4382 28V14.9091H55.4134V21.1605H55.5732L61.0639 14.9091H63.5504L58.2706 20.8026L63.5696 28H61.1918L56.9602 22.1513L55.4134 23.9283V28H53.4382ZM68.6529 28.1982C67.7324 28.1982 66.9292 27.9872 66.2431 27.5653C65.557 27.1435 65.0243 26.5533 64.6451 25.7947C64.2658 25.0362 64.0762 24.1499 64.0762 23.1357C64.0762 22.1172 64.2658 21.2266 64.6451 20.4638C65.0243 19.701 65.557 19.1087 66.2431 18.6868C66.9292 18.2649 67.7324 18.054 68.6529 18.054C69.5733 18.054 70.3766 18.2649 71.0627 18.6868C71.7488 19.1087 72.2814 19.701 72.6607 20.4638C73.04 21.2266 73.2296 22.1172 73.2296 23.1357C73.2296 24.1499 73.04 25.0362 72.6607 25.7947C72.2814 26.5533 71.7488 27.1435 71.0627 27.5653C70.3766 27.9872 69.5733 28.1982 68.6529 28.1982ZM68.6593 26.5938C69.2559 26.5938 69.7502 26.4361 70.1422 26.1207C70.5343 25.8054 70.824 25.3857 71.0115 24.8615C71.2033 24.3374 71.2992 23.7599 71.2992 23.1293C71.2992 22.5028 71.2033 21.9276 71.0115 21.4034C70.824 20.875 70.5343 20.451 70.1422 20.1314C69.7502 19.8118 69.2559 19.652 68.6593 19.652C68.0584 19.652 67.5598 19.8118 67.1635 20.1314C66.7715 20.451 66.4796 20.875 66.2878 21.4034C66.1003 21.9276 66.0066 22.5028 66.0066 23.1293C66.0066 23.7599 66.1003 24.3374 66.2878 24.8615C66.4796 25.3857 66.7715 25.8054 67.1635 26.1207C67.5598 26.4361 68.0584 26.5938 68.6593 26.5938ZM79.0384 28.1918C78.2457 28.1918 77.5384 27.9893 76.9162 27.5845C76.2983 27.1754 75.8125 26.5937 75.4588 25.8395C75.1094 25.081 74.9347 24.1712 74.9347 23.1101C74.9347 22.049 75.1115 21.1413 75.4652 20.3871C75.8232 19.6328 76.3132 19.0554 76.9354 18.6548C77.5575 18.2543 78.2628 18.054 79.0511 18.054C79.6605 18.054 80.1506 18.1562 80.5213 18.3608C80.8963 18.5611 81.1861 18.7955 81.3906 19.0639C81.5994 19.3324 81.7614 19.5689 81.8764 19.7734H81.9915V14.9091H83.9027V28H82.0362V26.4723H81.8764C81.7614 26.6811 81.5952 26.9197 81.3778 27.1882C81.1648 27.4567 80.8707 27.6911 80.4957 27.8913C80.1207 28.0916 79.6349 28.1918 79.0384 28.1918ZM79.4602 26.5618C80.0099 26.5618 80.4744 26.4169 80.8537 26.1271C81.2372 25.8331 81.527 25.4261 81.723 24.9062C81.9233 24.3864 82.0234 23.7812 82.0234 23.0909C82.0234 22.4091 81.9254 21.8125 81.7294 21.3011C81.5334 20.7898 81.2457 20.3913 80.8665 20.1058C80.4872 19.8203 80.0185 19.6776 79.4602 19.6776C78.8849 19.6776 78.4055 19.8267 78.022 20.125C77.6385 20.4233 77.3487 20.8303 77.1527 21.3459C76.9609 21.8615 76.8651 22.4432 76.8651 23.0909C76.8651 23.7472 76.9631 24.3374 77.1591 24.8615C77.3551 25.3857 77.6449 25.8011 78.0284 26.108C78.4162 26.4105 78.8935 26.5618 79.4602 26.5618ZM91.5476 14.9091H93.9446L98.1122 25.0852H98.2656L102.433 14.9091H104.83V28H102.951V18.527H102.83L98.9688 27.9808H97.4091L93.5483 18.5206H93.4268V28H91.5476V14.9091ZM110.406 28.2173C109.784 28.2173 109.221 28.1023 108.718 27.8722C108.215 27.6378 107.817 27.299 107.523 26.8558C107.233 26.4126 107.088 25.8693 107.088 25.2259C107.088 24.6719 107.195 24.2159 107.408 23.858C107.621 23.5 107.909 23.2166 108.271 23.0078C108.633 22.799 109.038 22.6413 109.485 22.5348C109.933 22.4283 110.389 22.3473 110.853 22.2919C111.441 22.2237 111.919 22.1683 112.285 22.1257C112.651 22.0788 112.918 22.0043 113.084 21.902C113.25 21.7997 113.333 21.6335 113.333 21.4034V21.3587C113.333 20.8004 113.176 20.3679 112.86 20.0611C112.549 19.7543 112.085 19.6009 111.467 19.6009C110.823 19.6009 110.316 19.7436 109.945 20.0291C109.579 20.3104 109.325 20.6236 109.185 20.9688L107.389 20.5597C107.602 19.9631 107.913 19.4815 108.322 19.1151C108.735 18.7443 109.21 18.4759 109.747 18.3097C110.284 18.1392 110.849 18.054 111.441 18.054C111.833 18.054 112.249 18.1009 112.688 18.1946C113.131 18.2841 113.544 18.4503 113.928 18.6932C114.316 18.9361 114.633 19.2834 114.88 19.7351C115.127 20.1825 115.251 20.7642 115.251 21.4801V28H113.384V26.6577H113.308C113.184 26.9048 112.999 27.1477 112.752 27.3864C112.504 27.625 112.187 27.8232 111.799 27.9808C111.411 28.1385 110.947 28.2173 110.406 28.2173ZM110.821 26.6832C111.35 26.6832 111.801 26.5788 112.176 26.37C112.556 26.1612 112.843 25.8885 113.039 25.5518C113.24 25.2109 113.34 24.8466 113.34 24.4588V23.1932C113.271 23.2614 113.139 23.3253 112.943 23.3849C112.752 23.4403 112.532 23.4893 112.285 23.532C112.038 23.5703 111.797 23.6065 111.563 23.6406C111.328 23.6705 111.132 23.696 110.975 23.7173C110.604 23.7642 110.265 23.843 109.958 23.9538C109.656 24.0646 109.413 24.2244 109.23 24.4332C109.051 24.6378 108.961 24.9105 108.961 25.2514C108.961 25.7244 109.136 26.0824 109.485 26.3253C109.835 26.5639 110.28 26.6832 110.821 26.6832ZM122.38 18.1818V19.7159H117.017V18.1818H122.38ZM118.455 15.8295H120.366V25.1172C120.366 25.4879 120.422 25.767 120.532 25.9545C120.643 26.1378 120.786 26.2635 120.961 26.3317C121.14 26.3956 121.333 26.4276 121.542 26.4276C121.696 26.4276 121.83 26.4169 121.945 26.3956C122.06 26.3743 122.15 26.3572 122.213 26.3445L122.559 27.9233C122.448 27.9659 122.29 28.0085 122.086 28.0511C121.881 28.098 121.625 28.1236 121.319 28.1278C120.816 28.1364 120.347 28.0469 119.912 27.8594C119.478 27.6719 119.126 27.3821 118.858 26.9901C118.589 26.598 118.455 26.1058 118.455 25.5135V15.8295ZM128.62 28.1982C127.653 28.1982 126.819 27.9915 126.121 27.5781C125.426 27.1605 124.889 26.5746 124.51 25.8203C124.135 25.0618 123.947 24.1733 123.947 23.1548C123.947 22.1491 124.135 21.2628 124.51 20.4957C124.889 19.7287 125.417 19.13 126.095 18.6996C126.777 18.2692 127.574 18.054 128.486 18.054C129.04 18.054 129.577 18.1456 130.096 18.3288C130.616 18.5121 131.083 18.7997 131.496 19.1918C131.91 19.5838 132.236 20.093 132.474 20.7195C132.713 21.3416 132.832 22.098 132.832 22.9886V23.6662H125.028V22.2344H130.959C130.959 21.7315 130.857 21.2862 130.653 20.8984C130.448 20.5064 130.16 20.1974 129.79 19.9716C129.423 19.7457 128.993 19.6328 128.498 19.6328C127.961 19.6328 127.493 19.7649 127.092 20.0291C126.696 20.2891 126.389 20.63 126.172 21.0518C125.959 21.4695 125.852 21.9233 125.852 22.4134V23.532C125.852 24.1882 125.967 24.7464 126.197 25.2067C126.432 25.6669 126.758 26.0185 127.175 26.2614C127.593 26.5 128.081 26.6193 128.639 26.6193C129.001 26.6193 129.331 26.5682 129.63 26.4659C129.928 26.3594 130.186 26.2017 130.403 25.9929C130.621 25.7841 130.787 25.5263 130.902 25.2195L132.711 25.5455C132.566 26.0781 132.306 26.5447 131.931 26.9453C131.56 27.3416 131.094 27.6506 130.531 27.8722C129.973 28.0895 129.336 28.1982 128.62 28.1982ZM134.953 28V18.1818H136.8V19.7415H136.902C137.081 19.2131 137.397 18.7976 137.848 18.495C138.304 18.1882 138.82 18.0348 139.395 18.0348C139.515 18.0348 139.655 18.0391 139.817 18.0476C139.983 18.0561 140.113 18.0668 140.207 18.0795V19.9077C140.13 19.8864 139.994 19.8629 139.798 19.8374C139.602 19.8075 139.406 19.7926 139.21 19.7926C138.758 19.7926 138.355 19.8885 138.002 20.0803C137.652 20.2678 137.375 20.5298 137.171 20.8665C136.966 21.1989 136.864 21.5781 136.864 22.0043V28H134.953ZM141.861 28V18.1818H143.772V28H141.861ZM142.826 16.6669C142.494 16.6669 142.208 16.5561 141.97 16.3345C141.735 16.1087 141.618 15.8402 141.618 15.5291C141.618 15.2138 141.735 14.9453 141.97 14.7237C142.208 14.4979 142.494 14.3849 142.826 14.3849C143.159 14.3849 143.442 14.4979 143.676 14.7237C143.915 14.9453 144.034 15.2138 144.034 15.5291C144.034 15.8402 143.915 16.1087 143.676 16.3345C143.442 16.5561 143.159 16.6669 142.826 16.6669ZM149.201 28.2173C148.578 28.2173 148.016 28.1023 147.513 27.8722C147.01 27.6378 146.612 27.299 146.318 26.8558C146.028 26.4126 145.883 25.8693 145.883 25.2259C145.883 24.6719 145.99 24.2159 146.203 23.858C146.416 23.5 146.703 23.2166 147.066 23.0078C147.428 22.799 147.833 22.6413 148.28 22.5348C148.728 22.4283 149.184 22.3473 149.648 22.2919C150.236 22.2237 150.713 22.1683 151.08 22.1257C151.446 22.0788 151.713 22.0043 151.879 21.902C152.045 21.7997 152.128 21.6335 152.128 21.4034V21.3587C152.128 20.8004 151.971 20.3679 151.655 20.0611C151.344 19.7543 150.88 19.6009 150.262 19.6009C149.618 19.6009 149.111 19.7436 148.74 20.0291C148.374 20.3104 148.12 20.6236 147.98 20.9688L146.184 20.5597C146.397 19.9631 146.708 19.4815 147.117 19.1151C147.53 18.7443 148.005 18.4759 148.542 18.3097C149.079 18.1392 149.644 18.054 150.236 18.054C150.628 18.054 151.044 18.1009 151.483 18.1946C151.926 18.2841 152.339 18.4503 152.723 18.6932C153.11 18.9361 153.428 19.2834 153.675 19.7351C153.922 20.1825 154.046 20.7642 154.046 21.4801V28H152.179V26.6577H152.103C151.979 26.9048 151.794 27.1477 151.547 27.3864C151.299 27.625 150.982 27.8232 150.594 27.9808C150.206 28.1385 149.742 28.2173 149.201 28.2173ZM149.616 26.6832C150.145 26.6832 150.596 26.5788 150.971 26.37C151.35 26.1612 151.638 25.8885 151.834 25.5518C152.034 25.2109 152.135 24.8466 152.135 24.4588V23.1932C152.066 23.2614 151.934 23.3253 151.738 23.3849C151.547 23.4403 151.327 23.4893 151.08 23.532C150.833 23.5703 150.592 23.6065 150.358 23.6406C150.123 23.6705 149.927 23.696 149.77 23.7173C149.399 23.7642 149.06 23.843 148.753 23.9538C148.451 24.0646 148.208 24.2244 148.025 24.4332C147.846 24.6378 147.756 24.9105 147.756 25.2514C147.756 25.7244 147.931 26.0824 148.28 26.3253C148.63 26.5639 149.075 26.6832 149.616 26.6832ZM158.503 14.9091V28H156.591V14.9091H158.503ZM168.431 20.5788L166.699 20.8857C166.626 20.6641 166.511 20.4531 166.354 20.2528C166.2 20.0526 165.991 19.8885 165.727 19.7607C165.463 19.6328 165.133 19.5689 164.737 19.5689C164.195 19.5689 163.744 19.6903 163.381 19.9332C163.019 20.1719 162.838 20.4808 162.838 20.8601C162.838 21.1882 162.96 21.4524 163.202 21.6527C163.445 21.853 163.837 22.017 164.379 22.1449L165.938 22.5028C166.842 22.7116 167.515 23.0334 167.958 23.468C168.401 23.9027 168.623 24.4673 168.623 25.1619C168.623 25.75 168.452 26.2741 168.112 26.7344C167.775 27.1903 167.304 27.5483 166.699 27.8082C166.098 28.0682 165.401 28.1982 164.609 28.1982C163.509 28.1982 162.612 27.9638 161.918 27.495C161.223 27.022 160.797 26.3509 160.639 25.4815L162.487 25.2003C162.602 25.6818 162.838 26.0462 163.196 26.2933C163.554 26.5362 164.021 26.6577 164.596 26.6577C165.222 26.6577 165.723 26.5277 166.098 26.2678C166.473 26.0036 166.661 25.6818 166.661 25.3026C166.661 24.9957 166.545 24.7379 166.315 24.5291C166.089 24.3203 165.742 24.1626 165.273 24.0561L163.612 23.6918C162.695 23.483 162.018 23.1506 161.579 22.6946C161.144 22.2386 160.927 21.6612 160.927 20.9624C160.927 20.3828 161.089 19.8757 161.413 19.4411C161.737 19.0064 162.184 18.6676 162.755 18.4247C163.326 18.1776 163.98 18.054 164.717 18.054C165.778 18.054 166.614 18.2841 167.223 18.7443C167.832 19.2003 168.235 19.8118 168.431 20.5788Z" fill="#222222"/>
</svg>
